<mxfile host="app.diagrams.net" modified="2021-10-13T10:23:31.564Z" agent="5.0 (Windows NT 10.0; Win64; x64) AppleWebKit/537.36 (KHTML, like Gecko) Chrome/94.0.4606.71 Safari/537.36" etag="OUUg6r6yUu9BiZYpK32P" version="15.5.2" type="github">
  <diagram id="XUskWWCQIt6-xJC38L1m" name="第 1 页">
    <mxGraphModel dx="1038" dy="547" grid="1" gridSize="10" guides="1" tooltips="1" connect="1" arrows="1" fold="1" page="1" pageScale="1" pageWidth="827" pageHeight="1169" math="0" shadow="0">
      <root>
        <mxCell id="0" />
        <mxCell id="1" parent="0" />
        <mxCell id="i2-r03Hxpv5uXuUD1cit-3" value="" style="edgeStyle=orthogonalEdgeStyle;rounded=0;orthogonalLoop=1;jettySize=auto;html=1;" edge="1" parent="1" source="i2-r03Hxpv5uXuUD1cit-1" target="i2-r03Hxpv5uXuUD1cit-2">
          <mxGeometry relative="1" as="geometry" />
        </mxCell>
        <mxCell id="i2-r03Hxpv5uXuUD1cit-1" value="" style="rounded=0;whiteSpace=wrap;html=1;" vertex="1" parent="1">
          <mxGeometry x="70" y="150" width="120" height="60" as="geometry" />
        </mxCell>
        <mxCell id="i2-r03Hxpv5uXuUD1cit-5" value="" style="edgeStyle=orthogonalEdgeStyle;rounded=0;orthogonalLoop=1;jettySize=auto;html=1;" edge="1" parent="1" source="i2-r03Hxpv5uXuUD1cit-2" target="i2-r03Hxpv5uXuUD1cit-4">
          <mxGeometry relative="1" as="geometry" />
        </mxCell>
        <mxCell id="i2-r03Hxpv5uXuUD1cit-2" value="" style="ellipse;whiteSpace=wrap;html=1;rounded=0;" vertex="1" parent="1">
          <mxGeometry x="270" y="150" width="120" height="60" as="geometry" />
        </mxCell>
        <mxCell id="i2-r03Hxpv5uXuUD1cit-7" value="" style="edgeStyle=orthogonalEdgeStyle;rounded=0;orthogonalLoop=1;jettySize=auto;html=1;" edge="1" parent="1" source="i2-r03Hxpv5uXuUD1cit-4" target="i2-r03Hxpv5uXuUD1cit-6">
          <mxGeometry relative="1" as="geometry" />
        </mxCell>
        <mxCell id="i2-r03Hxpv5uXuUD1cit-4" value="" style="ellipse;shape=cloud;whiteSpace=wrap;html=1;rounded=0;" vertex="1" parent="1">
          <mxGeometry x="270" y="280" width="120" height="80" as="geometry" />
        </mxCell>
        <mxCell id="i2-r03Hxpv5uXuUD1cit-6" value="" style="shape=singleArrow;whiteSpace=wrap;html=1;arrowWidth=0.4;arrowSize=0.4;rounded=0;" vertex="1" parent="1">
          <mxGeometry x="490" y="290" width="80" height="60" as="geometry" />
        </mxCell>
      </root>
    </mxGraphModel>
  </diagram>
</mxfile>
